<svg xmlns="http://www.w3.org/2000/svg" width="52.963" height="60.49" viewBox="0 0 52.963 60.49">
  <g id="Group_6581" data-name="Group 6581" transform="translate(36.66 -636.119)">
    <path id="Path_1290" data-name="Path 1290" d="M20.278,591.908A15.936,15.936,0,0,1,4.342,575.983a15.134,15.134,0,0,1,7.548-13.45A2.236,2.236,0,1,0,9.585,558.7a20.3,20.3,0,0,0,10.741,37.549c7.666,0,13.9-3.7,17.32-9.916a2.146,2.146,0,0,0-3.722-2.133,15.932,15.932,0,0,1-13.646,7.706" transform="translate(-36.16 99.859)" stroke="#000" stroke-width="1"/>
    <path id="Path_1291" data-name="Path 1291" d="M375.307,48.428l-3.2,1.2-6.932-18.488a2.709,2.709,0,0,0-2.4-1.754l-15.988-.816-.01-3.068,10.258-.019a2.557,2.557,0,0,0-.01-5.113l-10.243.019V11.586a5.9,5.9,0,1,0-5.389-1.224V30.007a3.588,3.588,0,0,0,3.409,3.584l1.742.087,12.926.617a2.107,2.107,0,0,1,1.87,1.359l6.289,16.616a3.243,3.243,0,0,0,4.176,1.887l4.952-1.864a2.065,2.065,0,1,0-1.456-3.865" transform="translate(-362.379 636.615)" stroke="#000" stroke-width="1"/>
  </g>
</svg>
