<svg id="Group_7659" data-name="Group 7659" xmlns="http://www.w3.org/2000/svg" width="60" height="60" viewBox="0 0 60 60">
  <path id="Path_23103" data-name="Path 23103" d="M30,0A30,30,0,1,1,0,30,30,30,0,0,1,30,0Z" fill="#fff"/>
  <g id="Group_7658" data-name="Group 7658" transform="translate(26.013 42) rotate(-90)">
    <path id="Path_238" data-name="Path 238" d="M3.347,22.356V2.2L1.1,4.459a.643.643,0,1,1-.912-.907h0L3.531.189h0a.643.643,0,0,1,.911,0h0L7.787,3.55a.643.643,0,1,1-.912.907L4.629,2.2V22.356a.644.644,0,1,1-1.287,0Z" transform="translate(23) rotate(90)"/>
  </g>
</svg>
