<svg id="Group_8107" data-name="Group 8107" xmlns="http://www.w3.org/2000/svg" xmlns:xlink="http://www.w3.org/1999/xlink" width="35.014" height="42.308" viewBox="0 0 35.014 42.308">
  <defs>
    <clipPath id="clip-path">
      <rect id="Rectangle_2188" data-name="Rectangle 2188" width="35.014" height="42.308" fill="none"/>
    </clipPath>
  </defs>
  <g id="Group_8106" data-name="Group 8106" clip-path="url(#clip-path)">
    <path id="Path_23152" data-name="Path 23152" d="M33.921,7.284A20.4,20.4,0,0,1,18.381.429a1.1,1.1,0,0,0-1.749,0A20.4,20.4,0,0,1,1.094,7.284,1.094,1.094,0,0,0,0,8.379c0,11.92,1.761,28.4,17.135,33.866a1.076,1.076,0,0,0,.367.063,1.111,1.111,0,0,0,.419-.082c.03-.008.061-.018.089-.028a24.066,24.066,0,0,0,4.116-1.908A1.094,1.094,0,0,0,21.017,38.4a21.9,21.9,0,0,1-3.512,1.65C4.214,35.161,2.3,20.536,2.192,9.449a22.551,22.551,0,0,0,15.315-6.7,22.551,22.551,0,0,0,15.315,6.7c-.071,8.256-1.053,18.267-7.013,25.01a1.094,1.094,0,1,0,1.639,1.45c6.707-7.588,7.567-18.7,7.567-27.53a1.094,1.094,0,0,0-1.094-1.094" transform="translate(0 0)" fill="#141414"/>
    <path id="Path_23153" data-name="Path 23153" d="M131.2,182.889l-5.619,7.025-3.692-3.691a1.094,1.094,0,0,0-1.546,1.548l4.556,4.556a1.089,1.089,0,0,0,.773.321l.061,0a1.1,1.1,0,0,0,.794-.409l6.383-7.98a1.095,1.095,0,0,0-1.71-1.368" transform="translate(-109.075 -165.839)" fill="#141414"/>
  </g>
</svg>
