<svg xmlns="http://www.w3.org/2000/svg" width="46.2" height="46.204" viewBox="0 0 46.2 46.204">
  <g id="Group_7754" data-name="Group 7754" transform="translate(-493.9 -1594.9)">
    <path id="Path_23140" data-name="Path 23140" d="M134.614,127.256a3.436,3.436,0,0,1-2.576-1.161L126.3,119.61a2.645,2.645,0,0,1,3.389-3.993l4.88,3.073,10.106-8.586a2.322,2.322,0,0,1,3.275,3.269L137.24,126.038a3.437,3.437,0,0,1-2.588,1.218h-.038m-6.331-10.44a1.04,1.04,0,0,0-.776,1.73l5.734,6.485a1.833,1.833,0,0,0,2.773-.03l10.715-12.664a.715.715,0,0,0-1.009-1.007l-10.246,8.7a1.285,1.285,0,0,1-1.707.047l-4.929-3.1a1.038,1.038,0,0,0-.555-.161" transform="translate(382.148 1498.002)" fill="#1e1e1e"/>
    <path id="Path_23140_-_Outline" data-name="Path 23140 - Outline" d="M134.614,127.356a3.54,3.54,0,0,1-2.651-1.2l-5.733-6.484a2.744,2.744,0,0,1,3.517-4.143l4.818,3.034,10.05-8.538a2.422,2.422,0,0,1,3.417,3.41L137.316,126.1a3.537,3.537,0,0,1-2.664,1.253Zm-6.332-12.048a2.549,2.549,0,0,0-1.9,4.237l5.733,6.484a3.34,3.34,0,0,0,2.5,1.128h.036a3.337,3.337,0,0,0,2.513-1.182l10.715-12.664a2.222,2.222,0,0,0-3.134-3.128l-10.162,8.633L129.64,115.7A2.547,2.547,0,0,0,128.281,115.307Zm6.338,10.442a1.939,1.939,0,0,1-1.454-.653l-5.734-6.485a1.138,1.138,0,0,1,1.459-1.719l4.94,3.112a1.185,1.185,0,0,0,1.574-.043l0,0,10.246-8.7a.815.815,0,0,1,1.15,1.148L136.09,125.065a1.931,1.931,0,0,1-1.455.684Zm-6.336-8.833a.94.94,0,0,0-.7,1.563l5.734,6.485a1.739,1.739,0,0,0,1.3.585h.014a1.731,1.731,0,0,0,1.3-.614l10.715-12.664a.615.615,0,0,0-.4-1.009.6.6,0,0,0-.468.142l-10.244,8.7a1.386,1.386,0,0,1-1.833.053l-4.923-3.1A.939.939,0,0,0,128.283,116.916Z" transform="translate(382.148 1498.002)"/>
    <path id="Path_23141" data-name="Path 23141" d="M107.069,120.08a12.913,12.913,0,1,1,7.075-23.716.8.8,0,0,1-.881,1.343,11.308,11.308,0,1,0,5.113,9.461c0-.321-.014-.645-.04-.965a.8.8,0,1,1,1.6-.135c.031.364.046.733.046,1.1a12.927,12.927,0,0,1-12.913,12.913" transform="translate(409.837 1510.749)" fill="#1e1e1e"/>
    <path id="Path_23141_-_Outline" data-name="Path 23141 - Outline" d="M107.069,120.18a13.013,13.013,0,1,1,7.13-23.9.9.9,0,1,1-.991,1.51,11.208,11.208,0,1,0,5.068,9.377c0-.318-.013-.64-.04-.956a.9.9,0,0,1,.824-.976l.074,0a.9.9,0,0,1,.9.827c.031.366.046.739.046,1.108A13.027,13.027,0,0,1,107.069,120.18Zm0-25.825a12.813,12.813,0,1,0,12.813,12.813c0-.363-.015-.73-.046-1.091a.7.7,0,1,0-1.4.118c.027.321.041.649.041.973a11.4,11.4,0,1,1-5.158-9.544.7.7,0,1,0,.771-1.176A12.761,12.761,0,0,0,107.069,94.355Z" transform="translate(409.837 1510.749)"/>
    <path id="Path_23142" data-name="Path 23142" d="M28.266,46a2.789,2.789,0,0,1-2.5-1.533l-2.094-4.129c-.452.019-.9.02-1.35,0l-2.093,4.125a2.8,2.8,0,0,1-3.569,1.32L11.367,43.6a2.813,2.813,0,0,1-1.59-3.457l1.437-4.4q-.494-.459-.959-.963L5.863,36.225A2.8,2.8,0,0,1,2.4,34.634L.211,29.34a2.815,2.815,0,0,1,1.32-3.57L5.66,23.676c-.018-.452-.019-.9,0-1.35L1.531,20.234a2.814,2.814,0,0,1-1.32-3.569l2.194-5.3a2.8,2.8,0,0,1,3.458-1.59l4.4,1.437q.455-.49.956-.952l-1.438-4.4a2.815,2.815,0,0,1,1.591-3.458L16.662.213a2.8,2.8,0,0,1,3.57,1.322l2.094,4.127c.45-.019.9-.02,1.351,0l2.093-4.125A2.8,2.8,0,0,1,29.338.213l5.3,2.193a2.814,2.814,0,0,1,1.59,3.457l-1.437,4.4q.494.458.958.963L40.137,9.78A2.8,2.8,0,0,1,43.6,11.37l2.193,5.294a2.812,2.812,0,0,1-1.32,3.569L40.34,22.328c.018.452.019.9,0,1.35l4.126,2.092a2.814,2.814,0,0,1,1.32,3.57L43.6,34.635a2.8,2.8,0,0,1-3.457,1.59l-4.4-1.437q-.456.492-.956.952l1.438,4.4a2.814,2.814,0,0,1-1.59,3.457l-5.3,2.193A2.787,2.787,0,0,1,28.266,46m-4.176-7.08a.7.7,0,0,1,.622.382l2.3,4.534A1.407,1.407,0,0,0,28.8,44.5l5.3-2.193a1.414,1.414,0,0,0,.8-1.736l-1.579-4.832a.7.7,0,0,1,.2-.742A15.847,15.847,0,0,0,35,33.525a.7.7,0,0,1,.74-.2L40.571,34.9a1.406,1.406,0,0,0,1.737-.8L44.5,28.807a1.413,1.413,0,0,0-.663-1.793l-4.529-2.3a.7.7,0,0,1-.38-.667,15.986,15.986,0,0,0,0-2.091.7.7,0,0,1,.38-.668l4.534-2.3A1.412,1.412,0,0,0,44.5,17.2l-2.193-5.3a1.407,1.407,0,0,0-1.735-.8l-4.825,1.587a.7.7,0,0,1-.743-.2A15.845,15.845,0,0,0,33.522,11a.7.7,0,0,1-.2-.74L34.9,5.431a1.413,1.413,0,0,0-.8-1.736L28.8,1.5a1.406,1.406,0,0,0-1.792.663l-2.3,4.529a.7.7,0,0,1-.667.38,15.9,15.9,0,0,0-2.09,0,.7.7,0,0,1-.669-.38l-2.3-4.533A1.406,1.406,0,0,0,17.2,1.5L11.9,3.695a1.413,1.413,0,0,0-.8,1.737l1.58,4.831a.7.7,0,0,1-.2.742A15.817,15.817,0,0,0,11,12.479a.7.7,0,0,1-.741.2L5.429,11.1a1.405,1.405,0,0,0-1.737.8L1.5,17.2a1.413,1.413,0,0,0,.663,1.792l4.529,2.3a.7.7,0,0,1,.38.667,15.941,15.941,0,0,0,0,2.091.7.7,0,0,1-.38.668l-4.534,2.3A1.414,1.414,0,0,0,1.5,28.807L3.692,34.1a1.4,1.4,0,0,0,1.736.8l4.824-1.586a.7.7,0,0,1,.743.2,15.959,15.959,0,0,0,1.482,1.489.7.7,0,0,1,.2.74L11.1,40.574a1.413,1.413,0,0,0,.8,1.736L17.2,44.5a1.405,1.405,0,0,0,1.792-.663l2.3-4.529a.694.694,0,0,1,.666-.38,15.846,15.846,0,0,0,2.091,0l.047,0" transform="translate(494 1595)" fill="#1e1e1e"/>
    <path id="Path_23142_-_Outline" data-name="Path 23142 - Outline" d="M28.266,46.1a2.889,2.889,0,0,1-2.587-1.587l-2.065-4.072q-.613.023-1.229,0L20.32,44.516a2.9,2.9,0,0,1-3.7,1.367L11.329,43.69a2.914,2.914,0,0,1-1.647-3.58L11.1,35.773c-.3-.28-.592-.574-.874-.878L5.894,36.32a2.9,2.9,0,0,1-3.582-1.648L.118,29.379a2.916,2.916,0,0,1,1.367-3.7l4.072-2.065c-.015-.411-.016-.824,0-1.229L1.486,20.323a2.914,2.914,0,0,1-1.368-3.7l2.194-5.3A2.9,2.9,0,0,1,5.893,9.684L10.229,11.1c.277-.3.57-.587.871-.867L9.682,5.9a2.915,2.915,0,0,1,1.648-3.581L16.624.121a2.9,2.9,0,0,1,3.7,1.369l2.065,4.069c.408-.015.821-.016,1.23,0L25.68,1.488a2.9,2.9,0,0,1,3.7-1.367l5.3,2.193a2.915,2.915,0,0,1,1.647,3.58L34.9,10.231c.3.279.591.574.873.878l4.332-1.424a2.9,2.9,0,0,1,3.582,1.647l2.193,5.294a2.912,2.912,0,0,1-1.367,3.7l-4.072,2.065c.015.409.016.822,0,1.23l4.069,2.064a2.914,2.914,0,0,1,1.367,3.7l-2.193,5.294a2.9,2.9,0,0,1-3.581,1.647L35.771,34.9c-.278.3-.57.588-.871.867l1.419,4.34a2.915,2.915,0,0,1-1.647,3.58l-5.3,2.193A2.886,2.886,0,0,1,28.266,46.1ZM23.734,40.24l2.123,4.187A2.7,2.7,0,0,0,29.3,45.7l5.3-2.193a2.714,2.714,0,0,0,1.533-3.334L34.669,35.71l.047-.044c.329-.3.649-.622.951-.947l.044-.047,4.458,1.457A2.7,2.7,0,0,0,43.5,34.6L45.7,29.3a2.713,2.713,0,0,0-1.272-3.443l-4.183-2.121,0-.064c.016-.444.015-.9,0-1.342l0-.064,4.186-2.123A2.712,2.712,0,0,0,45.7,16.7L43.5,11.409a2.7,2.7,0,0,0-3.335-1.534l-4.454,1.465-.044-.047c-.307-.333-.627-.655-.953-.958l-.047-.044,1.457-4.458A2.714,2.714,0,0,0,34.595,2.5L29.3.306a2.7,2.7,0,0,0-3.441,1.273L23.736,5.761l-.064,0c-.445-.016-.9-.015-1.343,0l-.064,0L20.143,1.581A2.7,2.7,0,0,0,16.7.306L11.406,2.5A2.714,2.714,0,0,0,9.872,5.833l1.458,4.461-.047.044c-.33.3-.65.623-.951.947l-.044.047L5.831,9.874A2.7,2.7,0,0,0,2.5,11.407L.3,16.7a2.713,2.713,0,0,0,1.273,3.441l4.183,2.122,0,.064c-.016.442-.015.894,0,1.342l0,.064L1.576,25.86A2.715,2.715,0,0,0,.3,29.3L2.5,34.6A2.7,2.7,0,0,0,5.832,36.13l4.454-1.464.044.047c.306.332.626.654.953.958l.047.044L9.872,40.172a2.713,2.713,0,0,0,1.534,3.333L16.7,45.7a2.7,2.7,0,0,0,3.442-1.273l2.122-4.182.064,0c.447.016.9.015,1.342,0Zm4.532,4.47a1.5,1.5,0,0,1-1.344-.824l-2.3-4.534a.592.592,0,0,0-.573-.326,16.016,16.016,0,0,1-2.1,0,.594.594,0,0,0-.571.326l-2.3,4.529a1.505,1.505,0,0,1-1.919.71l-5.3-2.193a1.513,1.513,0,0,1-.855-1.859l1.578-4.828a.6.6,0,0,0-.173-.634,16.056,16.056,0,0,1-1.491-1.5.6.6,0,0,0-.636-.174L5.459,35A1.5,1.5,0,0,1,3.6,34.139L1.406,28.845a1.514,1.514,0,0,1,.71-1.92l4.534-2.3a.6.6,0,0,0,.326-.572,16.043,16.043,0,0,1,0-2.1.6.6,0,0,0-.326-.571l-4.529-2.3a1.513,1.513,0,0,1-.71-1.919l2.194-5.3a1.505,1.505,0,0,1,1.86-.855l4.827,1.578a.6.6,0,0,0,.634-.174,15.917,15.917,0,0,1,1.49-1.484.6.6,0,0,0,.175-.635l-1.58-4.831a1.514,1.514,0,0,1,.856-1.86l5.294-2.194a1.506,1.506,0,0,1,1.92.711l2.3,4.533a.593.593,0,0,0,.573.325,16.079,16.079,0,0,1,2.1,0h.037a.6.6,0,0,0,.534-.327l2.3-4.529a1.506,1.506,0,0,1,1.919-.71l5.3,2.193a1.514,1.514,0,0,1,.856,1.859l-1.578,4.827a.6.6,0,0,0,.173.634,15.947,15.947,0,0,1,1.491,1.5.6.6,0,0,0,.636.175l4.825-1.587a1.507,1.507,0,0,1,1.859.856l2.193,5.3a1.512,1.512,0,0,1-.71,1.919l-4.534,2.3a.6.6,0,0,0-.326.572,16.087,16.087,0,0,1,0,2.1.6.6,0,0,0,.326.571l4.529,2.3a1.514,1.514,0,0,1,.71,1.921L42.4,34.14A1.506,1.506,0,0,1,40.54,35l-4.827-1.578a.6.6,0,0,0-.634.174,15.945,15.945,0,0,1-1.49,1.484.6.6,0,0,0-.175.635l1.579,4.832a1.514,1.514,0,0,1-.855,1.86l-5.3,2.193A1.5,1.5,0,0,1,28.266,44.71ZM24.09,38.825a.793.793,0,0,1,.711.437L27.1,43.8a1.307,1.307,0,0,0,1.665.615l5.3-2.193A1.313,1.313,0,0,0,34.8,40.6l-1.579-4.832a.8.8,0,0,1,.233-.848,15.745,15.745,0,0,0,1.472-1.466.8.8,0,0,1,.847-.232L40.6,34.805a1.306,1.306,0,0,0,1.613-.741l2.193-5.295a1.313,1.313,0,0,0-.616-1.666l-4.529-2.3a.8.8,0,0,1-.435-.762,15.885,15.885,0,0,0,0-2.078.8.8,0,0,1,.435-.764l4.534-2.3a1.311,1.311,0,0,0,.615-1.664l-2.193-5.3A1.307,1.307,0,0,0,40.6,11.2l-4.825,1.587a.8.8,0,0,1-.85-.233,15.745,15.745,0,0,0-1.472-1.479.8.8,0,0,1-.232-.847L34.8,5.4a1.313,1.313,0,0,0-.742-1.612l-5.3-2.193a1.306,1.306,0,0,0-1.664.615L24.8,6.739a.8.8,0,0,1-.762.435,15.875,15.875,0,0,0-2.077,0,.8.8,0,0,1-.765-.434L18.9,2.211a1.306,1.306,0,0,0-1.666-.617L11.939,3.787A1.313,1.313,0,0,0,11.2,5.4l1.58,4.831a.8.8,0,0,1-.233.848,15.717,15.717,0,0,0-1.472,1.465.8.8,0,0,1-.847.232L5.4,11.2a1.305,1.305,0,0,0-1.613.741l-2.194,5.3A1.312,1.312,0,0,0,2.207,18.9l4.529,2.3a.8.8,0,0,1,.435.762,15.842,15.842,0,0,0,0,2.078.8.8,0,0,1-.435.764L2.207,27.1a1.313,1.313,0,0,0-.616,1.666l2.194,5.294a1.3,1.3,0,0,0,1.612.742l4.824-1.586a.8.8,0,0,1,.849.233,15.857,15.857,0,0,0,1.473,1.479.8.8,0,0,1,.232.847L11.2,40.605a1.312,1.312,0,0,0,.742,1.612l5.3,2.193A1.305,1.305,0,0,0,18.9,43.8l2.3-4.529a.793.793,0,0,1,.762-.435,15.82,15.82,0,0,0,2.077,0Z" transform="translate(494 1595)"/>
  </g>
</svg>
