<svg xmlns="http://www.w3.org/2000/svg" width="50" height="50" viewBox="0 0 50 50">
  <g id="Group_7675" data-name="Group 7675" transform="translate(0 0)">
    <g id="Path_23069" data-name="Path 23069" transform="translate(0 0)" fill="none">
      <path d="M25,0A25,25,0,1,0,50,25,25,25,0,0,0,25,0Z" stroke="none"/>
      <path d="M 25 1.000003814697266 C 21.75958061218262 1.000003814697266 18.61661911010742 1.634422302246094 15.65842819213867 2.885643005371094 C 12.80065155029297 4.094394683837891 10.23387908935547 5.825035095214844 8.029441833496094 8.029495239257812 C 5.825000762939453 10.23394393920898 4.094371795654297 12.80072402954102 2.885631561279297 15.65853500366211 C 1.634418487548828 18.61674308776855 1 21.75973320007324 1 25.00017356872559 C 1 28.24061393737793 1.634418487548828 31.38360404968262 2.885631561279297 34.34181213378906 C 4.094371795654297 37.19962310791016 5.825000762939453 39.76640319824219 8.029441833496094 41.97085571289062 C 10.23387908935547 44.17531204223633 12.80065155029297 45.90595245361328 15.65842819213867 47.11470413208008 C 18.61661911010742 48.36592483520508 21.75958061218262 49.00034332275391 25 49.00034332275391 C 28.24041938781738 49.00034332275391 31.38338088989258 48.36592483520508 34.34156799316406 47.11470413208008 C 37.19935989379883 45.90595245361328 39.76612091064453 44.17531204223633 41.97055816650391 41.97085571289062 C 44.17499923706055 39.76640319824219 45.90563201904297 37.19962310791016 47.1143684387207 34.34181213378906 C 48.36558151245117 31.38360404968262 49 28.24061393737793 49 25.00017356872559 C 49 21.75973320007324 48.36558151245117 18.61674308776855 47.1143684387207 15.65853500366211 C 45.90563201904297 12.80072402954102 44.17499923706055 10.23394393920898 41.97055816650391 8.029495239257812 C 39.76612091064453 5.825035095214844 37.19935989379883 4.094394683837891 34.34156799316406 2.885643005371094 C 31.38338088989258 1.634422302246094 28.24041938781738 1.000003814697266 25 1.000003814697266 M 25 3.814697265625e-06 C 38.80712127685547 3.814697265625e-06 50 11.19296264648438 50 25.00017356872559 C 50 38.8073844909668 38.80712127685547 50.00034332275391 25 50.00034332275391 C 11.19289016723633 50.00034332275391 0 38.8073844909668 0 25.00017356872559 C 0 11.19296264648438 11.19289016723633 3.814697265625e-06 25 3.814697265625e-06 Z" stroke="none" fill="#fff"/>
    </g>
    <path id="Path_29" data-name="Path 29" d="M3790.69,806.779l-7.058,7.058,7.058,7.058" transform="translate(-3762.132 -789.279)" fill="none" stroke="#fff" stroke-linecap="round" stroke-width="2"/>
  </g>
</svg>
