<svg xmlns="http://www.w3.org/2000/svg" xmlns:xlink="http://www.w3.org/1999/xlink" width="45" height="45" viewBox="0 0 45 45">
  <defs>
    <clipPath id="clip-path">
      <rect id="Rectangle_2235" data-name="Rectangle 2235" width="27.456" height="18.749" fill="none"/>
    </clipPath>
  </defs>
  <g id="Group_8647" data-name="Group 8647" transform="translate(-750.999 -891)">
    <g id="Group_8602" data-name="Group 8602" transform="translate(-27.001 -0.5)">
      <rect id="Rectangle_2234" data-name="Rectangle 2234" width="25.399" height="16.46" transform="translate(787.974 905.474)"/>
      <g id="Group_8563" data-name="Group 8563" transform="translate(787 904.5)">
        <g id="Group_8562" data-name="Group 8562" transform="translate(0)" clip-path="url(#clip-path)">
          <path id="Path_23365" data-name="Path 23365" d="M2.317,0H25.14a2.322,2.322,0,0,1,2.317,2.317V16.433a2.322,2.322,0,0,1-2.317,2.317H2.317A2.322,2.322,0,0,1,0,16.433V2.317A2.322,2.322,0,0,1,2.317,0m.015,1.336c3.551,3.559,6.793,6.81,10.16,10.184a1.7,1.7,0,0,0,2.475,0L25.126,1.336Zm23.785.891L18.9,9.473l7.216,6.49V2.317Zm-8.154,8.193-2.055,2.065a3.019,3.019,0,0,1-4.358,0L9.512,10.435l-7.64,6.872a.974.974,0,0,0,.445.108H25.14a.973.973,0,0,0,.468-.119ZM8.57,9.488,1.34,2.225l0,.091V16Z" fill="#fff"/>
        </g>
      </g>
    </g>
    <g id="Ellipse_1755" data-name="Ellipse 1755" transform="translate(750.999 891)" fill="none" stroke="#000" stroke-width="1">
      <circle cx="22.5" cy="22.5" r="22.5" stroke="none"/>
      <circle cx="22.5" cy="22.5" r="22" fill="none"/>
    </g>
  </g>
</svg>
