<svg xmlns="http://www.w3.org/2000/svg" xmlns:xlink="http://www.w3.org/1999/xlink" width="53" height="51.578" viewBox="0 0 53 51.578">
  <defs>
    <clipPath id="clip-path">
      <rect id="Rectangle_2187" data-name="Rectangle 2187" width="53" height="51.578" transform="translate(0)" fill="none" stroke="#000" stroke-width="1"/>
    </clipPath>
  </defs>
  <g id="Group_8105" data-name="Group 8105" transform="translate(15.949 14.903)">
    <g id="Group_8104" data-name="Group 8104" transform="translate(-15.949 -14.903)" clip-path="url(#clip-path)">
      <path id="Path_23150" data-name="Path 23150" d="M11.657,42.308a.872.872,0,0,0,.072.073.425.425,0,0,0,.277.1.457.457,0,0,0,.335-.151.466.466,0,0,0-.024-.637L1.078,30.457a.609.609,0,0,1,0-.859L21.355,9.321a.611.611,0,0,1,.418-.179l3.491-.074a8.754,8.754,0,0,0,1.086,3.937,2.445,2.445,0,0,0,3.684,3.2h0A2.45,2.45,0,0,0,28.3,12.019h0a2.431,2.431,0,0,0-1.27.363,7.857,7.857,0,0,1-.868-3.332L33.239,8.9a.615.615,0,0,1,.631.622L33.634,21a.607.607,0,0,1-.178.418L14.073,40.8a.451.451,0,1,0,.637.638L34.092,22.058a1.5,1.5,0,0,0,.442-1.037l.073-3.527a8.767,8.767,0,1,0-9.329-9.327l-3.523.074a1.509,1.509,0,0,0-1.036.441L.442,28.959a1.512,1.512,0,0,0,0,2.136ZM28.3,12.92h0A1.549,1.549,0,0,1,29.4,15.564a1.544,1.544,0,0,1-2.508-1.71c.276.385.892-.277.618-.681a1.518,1.518,0,0,1,.8-.252M28.45,3.2A7.863,7.863,0,1,1,34.626,16.59l.145-7.058A1.519,1.519,0,0,0,33.23,8l-7.05.148A7.822,7.822,0,0,1,28.45,3.2" transform="translate(5.115 4.547)" stroke="#000" stroke-width="1"/>
    </g>
  </g>
</svg>
