<svg xmlns="http://www.w3.org/2000/svg" width="43.572" height="46.2" viewBox="0 0 43.572 46.2">
  <g id="Group_7749" data-name="Group 7749" transform="translate(-837.731 -1594.9)">
    <path id="Path_23128" data-name="Path 23128" d="M170.391,154.968A2.9,2.9,0,0,1,173,156.6a.7.7,0,1,0,1.254-.609,4.292,4.292,0,0,0-3.859-2.417.7.7,0,1,0,0,1.394" transform="translate(689.189 1460.479)" fill="#1e1e1e"/>
    <path id="Path_23128_-_Outline" data-name="Path 23128 - Outline" d="M173.624,157.092a.8.8,0,0,1-.717-.449,2.8,2.8,0,0,0-2.515-1.575.8.8,0,0,1,0-1.594,4.392,4.392,0,0,1,3.949,2.473.8.8,0,0,1-.716,1.145Zm-3.233-3.418a.6.6,0,0,0,0,1.194,3,3,0,0,1,2.7,1.688.6.6,0,1,0,1.074-.521,4.192,4.192,0,0,0-3.769-2.361Z" transform="translate(689.189 1460.479)"/>
    <path id="Path_23129" data-name="Path 23129" d="M113.96,125.316a8.151,8.151,0,0,0-3.478,14.958v4.6a4.1,4.1,0,0,0,4.1,4.1h.62a4.1,4.1,0,0,0,4.1-4.1v-4.6a8.153,8.153,0,0,0-5.338-14.958m1.24,22.262h-.62a2.708,2.708,0,0,1-2.7-2.7v-1.1H117.9v1.1a2.708,2.708,0,0,1-2.7,2.7m4.2-19.2a6.755,6.755,0,0,1-1.1,10.872.8.8,0,0,0-.4.689v2.435h-6.029v-2.435a.8.8,0,0,0-.395-.689,6.758,6.758,0,0,1,2.633-12.551,7.1,7.1,0,0,1,.785-.044,6.685,6.685,0,0,1,4.5,1.723" transform="translate(744.336 1485.274)" fill="#1e1e1e"/>
    <path id="Path_23129_-_Outline" data-name="Path 23129 - Outline" d="M115.2,149.072h-.62a4.2,4.2,0,0,1-4.2-4.2v-4.545a8.251,8.251,0,0,1,3.567-15.112,8.4,8.4,0,0,1,.92-.051,8.253,8.253,0,0,1,4.529,15.162v4.545A4.2,4.2,0,0,1,115.2,149.072Zm-.33-23.706a8.194,8.194,0,0,0-.9.05,8.051,8.051,0,0,0-3.435,14.774l.046.03v4.654a4,4,0,0,0,4,4h.62a4,4,0,0,0,4-4V140.22l.046-.03a8.05,8.05,0,0,0-4.375-14.824Zm.33,22.312h-.62a2.808,2.808,0,0,1-2.8-2.8v-1.2H118v1.2A2.808,2.808,0,0,1,115.2,147.678Zm-3.224-3.807v1a2.607,2.607,0,0,0,2.6,2.6h.62a2.607,2.607,0,0,0,2.6-2.6v-1ZM118,142.477h-6.229v-2.535a.7.7,0,0,0-.345-.6A6.858,6.858,0,0,1,114.1,126.6a7.232,7.232,0,0,1,.8-.044,6.748,6.748,0,0,1,4.566,1.748,6.855,6.855,0,0,1-1.114,11.032.7.7,0,0,0-.346.6Zm-6.029-.2H117.8v-2.335a.9.9,0,0,1,.445-.775,6.655,6.655,0,0,0,1.082-10.711,6.55,6.55,0,0,0-4.433-1.7,7.029,7.029,0,0,0-.774.043,6.657,6.657,0,0,0-2.593,12.365.9.9,0,0,1,.444.775Z" transform="translate(744.336 1485.274)"/>
    <path id="Path_23130" data-name="Path 23130" d="M256.728,188.046a.7.7,0,0,0,0-1.394h-1.194a.7.7,0,1,0,0,1.394Z" transform="translate(614.609 1431.504)" fill="#1e1e1e"/>
    <path id="Path_23130_-_Outline" data-name="Path 23130 - Outline" d="M256.728,188.146h-1.194a.8.8,0,1,1,0-1.594h1.194a.8.8,0,0,1,0,1.594Zm-1.194-1.394a.6.6,0,1,0,0,1.194h1.194a.6.6,0,0,0,0-1.194Z" transform="translate(614.609 1431.504)"/>
    <path id="Path_23131" data-name="Path 23131" d="M69.918,186.651a.7.7,0,1,0,0,1.394h1.194a.7.7,0,1,0,0-1.394Z" transform="translate(777.197 1431.505)" fill="#1e1e1e"/>
    <path id="Path_23131_-_Outline" data-name="Path 23131 - Outline" d="M69.918,186.551h1.194a.8.8,0,0,1,0,1.594H69.918a.8.8,0,0,1,0-1.594Zm1.194,1.394a.6.6,0,0,0,0-1.194H69.918a.6.6,0,0,0,0,1.194Z" transform="translate(777.197 1431.505)"/>
    <path id="Path_23132" data-name="Path 23132" d="M168.236,90.921V89.727a.7.7,0,0,0-1.394,0v1.194a.7.7,0,0,0,1.394,0" transform="translate(691.687 1517.015)" fill="#1e1e1e"/>
    <path id="Path_23132_-_Outline" data-name="Path 23132 - Outline" d="M167.539,91.718a.8.8,0,0,1-.8-.8V89.727a.8.8,0,0,1,1.594,0v1.194A.8.8,0,0,1,167.539,91.718Zm0-2.588a.6.6,0,0,0-.6.6v1.194a.6.6,0,0,0,1.194,0V89.727A.6.6,0,0,0,167.539,89.13Z" transform="translate(691.687 1517.015)"/>
    <path id="Path_23133" data-name="Path 23133" d="M229.761,119.862a.7.7,0,0,0,.493-.2l.844-.844a.7.7,0,0,0-.986-.986l-.844.844a.7.7,0,0,0,.493,1.19" transform="translate(637.185 1491.969)" fill="#1e1e1e"/>
    <path id="Path_23133_-_Outline" data-name="Path 23133 - Outline" d="M229.761,119.962a.8.8,0,0,1-.564-1.361l.845-.844a.8.8,0,1,1,1.127,1.127l-.844.844A.792.792,0,0,1,229.761,119.962Zm.845-2.238a.593.593,0,0,0-.422.175l-.844.844a.6.6,0,1,0,.844.844l.844-.844a.6.6,0,0,0-.422-1.019Z" transform="translate(637.185 1491.969)"/>
    <path id="Path_23134" data-name="Path 23134" d="M98.018,250.908a.7.7,0,0,0,.986,0l.844-.844a.7.7,0,0,0-.986-.986l-.844.844a.7.7,0,0,0,0,.986" transform="translate(752.151 1377.001)" fill="#1e1e1e"/>
    <path id="Path_23134_-_Outline" data-name="Path 23134 - Outline" d="M98.511,251.213a.8.8,0,0,1-.564-1.361l.844-.844a.8.8,0,0,1,1.127,1.127l-.844.844A.791.791,0,0,1,98.511,251.213Zm.844-2.238a.593.593,0,0,0-.422.175l-.844.844a.6.6,0,1,0,.844.844l.844-.844a.6.6,0,0,0-.422-1.019Z" transform="translate(752.151 1377.001)"/>
    <path id="Path_23135" data-name="Path 23135" d="M98.863,119.657a.7.7,0,0,0,.986-.986L99,117.827a.7.7,0,1,0-.986.986Z" transform="translate(752.151 1491.969)" fill="#1e1e1e"/>
    <path id="Path_23135_-_Outline" data-name="Path 23135 - Outline" d="M99.356,119.962a.792.792,0,0,1-.564-.233l-.844-.844a.8.8,0,0,1,1.127-1.127l.844.844a.8.8,0,0,1-.563,1.361Zm-.844-2.238a.6.6,0,0,0-.422,1.019l.844.844a.6.6,0,1,0,.844-.844l-.844-.844A.593.593,0,0,0,98.511,117.723Z" transform="translate(752.151 1491.969)"/>
    <path id="Path_23136" data-name="Path 23136" d="M230.254,249.078a.7.7,0,1,0-.986.986l.844.844a.7.7,0,0,0,.986-.986Z" transform="translate(637.185 1377.001)" fill="#1e1e1e"/>
    <path id="Path_23136_-_Outline" data-name="Path 23136 - Outline" d="M229.761,248.774a.792.792,0,0,1,.564.233l.845.844a.8.8,0,0,1-1.127,1.127l-.844-.844a.8.8,0,0,1,.563-1.36Zm.845,2.238a.6.6,0,0,0,.422-1.019l-.844-.844a.6.6,0,1,0-.844.844l.844.844A.594.594,0,0,0,230.606,251.012Z" transform="translate(637.185 1377.001)"/>
    <path id="Path_23137" data-name="Path 23137" d="M249.6,73.816a.7.7,0,0,0-.82-.547l-3.187.634a21.264,21.264,0,0,0-9.156-30.692.7.7,0,1,0-.578,1.268,19.871,19.871,0,0,1,8.572,28.656l-.588-3.221a.7.7,0,1,0-1.371.25l.881,4.831a.7.7,0,0,0,.048.185.721.721,0,0,0,.06.116l.015.021a.671.671,0,0,0,.065.081c.013.014.028.026.042.039s.026.027.042.039l.018.012.014.011c.015.011.032.019.048.028l.025.014a.6.6,0,0,0,.394.071c.02,0,.041,0,.062-.006l4.868-.969a.7.7,0,0,0,.548-.82" transform="translate(631.592 1557.206)" fill="#1e1e1e"/>
    <path id="Path_23137_-_Outline" data-name="Path 23137 - Outline" d="M244.046,75.718a.8.8,0,0,1-.365-.09l-.02-.011-.021-.012a.486.486,0,0,1-.042-.025l-.017-.013-.02-.013a.339.339,0,0,1-.035-.032l-.012-.011L243.5,75.5c-.012-.011-.024-.022-.035-.033a.761.761,0,0,1-.074-.092l0,0-.014-.019a.827.827,0,0,1-.069-.132.807.807,0,0,1-.054-.208l-.881-4.828a.8.8,0,0,1,.641-.927.8.8,0,0,1,.927.641l.541,2.967a19.772,19.772,0,0,0-8.665-28.293.8.8,0,0,1,.661-1.45A21.383,21.383,0,0,1,248.452,67.3a21.161,21.161,0,0,1-2.652,6.463l2.959-.589a.8.8,0,1,1,.311,1.563L244.2,75.7a.672.672,0,0,1-.07.007l-.02,0A.5.5,0,0,1,244.046,75.718Zm-.333-.3.022.013.028.016.008,0a.6.6,0,0,0,.274.068.338.338,0,0,0,.04,0l.051-.005.026,0,4.868-.969a.6.6,0,1,0-.233-1.171l-3.416.68.125-.2A21.164,21.164,0,0,0,236.394,43.3a.593.593,0,0,0-.247-.054.6.6,0,0,0-.248,1.14,19.915,19.915,0,0,1,8.615,28.8l-.137.216-.634-3.473a.6.6,0,1,0-1.174.214l.882,4.838a.605.605,0,0,0,.041.159.624.624,0,0,0,.052.1l.005.007.007.01a.571.571,0,0,0,.056.07l.023.021.015.013.019.018a.15.15,0,0,0,.015.014l.016.01Z" transform="translate(631.592 1557.206)"/>
    <path id="Path_23138" data-name="Path 23138" d="M33.489,264.61a19.859,19.859,0,0,1-29.833-6.837l3.1,1.142a.7.7,0,0,0,.482-1.308L2.58,255.891l-.021-.006a.718.718,0,0,0-.1-.025l-.029,0a.7.7,0,0,0-.116-.006H2.3a.692.692,0,0,0-.644.527L.04,261a.7.7,0,1,0,1.315.461l1.066-3.041a21.253,21.253,0,0,0,18.76,11.688h.2a21.333,21.333,0,0,0,12.958-4.393.7.7,0,0,0-.85-1.1" transform="translate(837.83 1370.892)" fill="#1e1e1e"/>
    <path id="Path_23138_-_Outline" data-name="Path 23138 - Outline" d="M21.382,270.208h-.2A21.352,21.352,0,0,1,2.438,258.672l-.988,2.82a.8.8,0,0,1-1.5-.527l1.618-4.618a.792.792,0,0,1,.735-.6h.038a.8.8,0,0,1,.11.008l.031.005a.829.829,0,0,1,.113.029l.025.007,4.657,1.716a.8.8,0,1,1-.551,1.5l-2.859-1.054A19.841,19.841,0,0,0,21.4,268.643a19.566,19.566,0,0,0,12.025-4.112.8.8,0,1,1,.972,1.263A21.453,21.453,0,0,1,21.382,270.208ZM2.4,258.164l.106.21a21.153,21.153,0,0,0,18.671,11.633h.2a21.252,21.252,0,0,0,12.9-4.372.6.6,0,1,0-.728-.946,20.02,20.02,0,0,1-5.823,3.117,19.8,19.8,0,0,1-12.949-.1,20.1,20.1,0,0,1-11.211-9.885l-.114-.226,3.337,1.23A.6.6,0,1,0,7.2,257.7l-4.654-1.715-.021-.006a.619.619,0,0,0-.084-.022l-.025,0a.6.6,0,0,0-.082-.006H2.308a.592.592,0,0,0-.551.451l0,.009-1.62,4.622a.6.6,0,1,0,1.127.4Z" transform="translate(837.83 1370.892)"/>
    <path id="Path_23139" data-name="Path 23139" d="M2.026,27.7a.7.7,0,0,0,.694-.773A19.7,19.7,0,0,1,7.1,12.165a19.925,19.925,0,0,1,17-7.189L21.525,7.092A.7.7,0,0,0,22.41,8.17l3.836-3.15,0,0a.7.7,0,0,0,.091-.091l.005-.006a.7.7,0,0,0,.072-.108l0-.006a.7.7,0,0,0,.048-.118l0-.011a.727.727,0,0,0,.019-.082c0-.014,0-.028,0-.041s0-.006,0-.009,0-.007,0-.01,0-.025,0-.038,0-.02,0-.031,0-.028,0-.042,0-.017,0-.026,0-.029-.007-.043,0-.016,0-.024-.007-.028-.011-.042l-.007-.024c0-.013-.009-.026-.015-.039L26.44,4.2c-.005-.012-.011-.023-.017-.035l-.014-.027-.019-.031-.017-.027-.022-.028-.016-.021L23.124.245a.7.7,0,0,0-1.063.9l2.063,2.432a21.213,21.213,0,0,0-18.1,7.7,21.083,21.083,0,0,0-4.692,15.8.7.7,0,0,0,.692.621" transform="translate(836.776 1595)" fill="#1e1e1e"/>
    <path id="Path_23139_-_Outline" data-name="Path 23139 - Outline" d="M2.026,27.8a.8.8,0,0,1-.791-.71A21.327,21.327,0,0,1,22.459,3.414c.476,0,.958.016,1.434.048l-1.909-2.25A.8.8,0,0,1,23.2.181l3.211,3.785.014.018,0,.006.025.032.015.024,0,.008.022.036.017.032c.006.011.013.025.019.038l.009.022,0,.006c.006.014.012.03.017.045l.008.028c0,.015.009.032.013.048l0,.022v.005c0,.016.006.033.008.05s0,.016,0,.023v.006c0,.016,0,.032,0,.048s0,.02,0,.03,0,.033,0,.048,0,.006,0,.01l0,.023c0,.012,0,.024,0,.036a.819.819,0,0,1-.021.093l0,.01a.822.822,0,0,1-.056.138l0,.007a.808.808,0,0,1-.082.124l-.005.006a.816.816,0,0,1-.1.1l-.011.01L22.473,8.247a.8.8,0,1,1-1.012-1.232l2.384-1.958c-.454-.031-.912-.047-1.365-.047A19.745,19.745,0,0,0,2.819,26.915a.8.8,0,0,1-.705.879A.808.808,0,0,1,2.026,27.8ZM22.459,3.614A21.14,21.14,0,0,0,1.433,27.068a.6.6,0,0,0,.592.532.608.608,0,0,0,.066,0,.6.6,0,0,0,.528-.659A19.8,19.8,0,0,1,7.027,12.1,20.023,20.023,0,0,1,22.481,4.81c.542,0,1.09.022,1.629.067l.246.02L21.588,7.17a.6.6,0,0,0,.758.923l3.84-3.154a.6.6,0,0,0,.076-.077l0-.005a.6.6,0,0,0,.062-.093l0-.005a.6.6,0,0,0,.041-.1l0-.009a.606.606,0,0,0,.016-.07c0-.008,0-.015,0-.023l0-.023V4.526c0-.011,0-.022,0-.032V4.488c0-.007,0-.014,0-.021s0-.024,0-.036V4.425c0-.005,0-.011,0-.016s0-.025-.006-.037V4.367l0-.015c0-.012-.006-.024-.009-.036l-.006-.021c0-.01-.008-.021-.012-.032l0-.008-.006-.014c0-.01-.009-.02-.014-.029l-.012-.024-.014-.023L26.3,4.152l-.01-.015-.016-.021-.01-.014L26.258,4.1,23.047.31a.6.6,0,0,0-.911.773L24.355,3.7l-.239-.019C23.567,3.636,23.01,3.614,22.459,3.614Z" transform="translate(836.776 1595)"/>
  </g>
</svg>
