<svg xmlns="http://www.w3.org/2000/svg" width="45" height="45" viewBox="0 0 45 45">
  <g id="Group_8653" data-name="Group 8653" transform="translate(-64.596)">
    <g id="Ellipse_1752" data-name="Ellipse 1752" transform="translate(64.596)" fill="none" stroke="#283fb8" stroke-width="1">
      <circle cx="22.5" cy="22.5" r="22.5" stroke="none"/>
      <circle cx="22.5" cy="22.5" r="22" fill="none"/>
    </g>
    <path id="Path_23337" data-name="Path 23337" d="M7.322,0A7.392,7.392,0,0,0,0,7.33c0,1.627.958,4.11,3.025,7.813,1.458,2.6,2.873,4.754,2.881,4.763l1.017,1.542a.477.477,0,0,0,.661.136.516.516,0,0,0,.136-.136L8.737,19.9c.008-.008,1.432-2.178,2.881-4.754,2.068-3.7,3.034-6.186,3.034-7.813A7.4,7.4,0,0,0,7.322,0M7.313,4.212h.008A3.074,3.074,0,0,1,10.3,7.288v.093a3.087,3.087,0,0,1-2.991,2.983H7.3a3.076,3.076,0,0,1,.008-6.152" transform="translate(80.207 11.669)" fill="#283fb8"/>
  </g>
</svg>
