<svg xmlns="http://www.w3.org/2000/svg" xmlns:xlink="http://www.w3.org/1999/xlink" width="41.472" height="42.047" viewBox="0 0 41.472 42.047">
  <defs>
    <clipPath id="clip-path">
      <rect id="Rectangle_2190" data-name="Rectangle 2190" width="41.472" height="42.047" transform="translate(-2 -2)" stroke="#000" stroke-width="0.7"/>
    </clipPath>
  </defs>
  <g id="Group_8111" data-name="Group 8111" transform="translate(2 2)">
    <g id="Group_8110" data-name="Group 8110" clip-path="url(#clip-path)">
      <path id="Path_23155" data-name="Path 23155" d="M131.118,3.067a10.474,10.474,0,0,0-16.574,12.471l-1.875,5.371a.555.555,0,0,0,.709.707l5.4-1.9A10.474,10.474,0,0,0,131.118,3.067m-.785,14.027a9.367,9.367,0,0,1-11.23,1.53.556.556,0,0,0-.458-.041l-4.547,1.6,1.578-4.519a.555.555,0,0,0-.045-.464,9.364,9.364,0,1,1,14.7,1.892" transform="translate(-96.714 0.001)" stroke="#000" stroke-width="0.7"/>
      <path id="Path_23156" data-name="Path 23156" d="M153.581,66.72a1.041,1.041,0,1,0,1.041,1.041,1.043,1.043,0,0,0-1.041-1.041" transform="translate(-130.975 -57.288)" stroke="#000" stroke-width="0.7"/>
      <path id="Path_23157" data-name="Path 23157" d="M184.652,66.72a1.041,1.041,0,1,0,1.041,1.041,1.043,1.043,0,0,0-1.041-1.041" transform="translate(-157.654 -57.288)" stroke="#000" stroke-width="0.7"/>
      <path id="Path_23158" data-name="Path 23158" d="M215.721,66.72a1.041,1.041,0,1,0,1.041,1.041,1.043,1.043,0,0,0-1.041-1.041" transform="translate(-184.331 -57.288)" stroke="#000" stroke-width="0.7"/>
      <path id="Path_23159" data-name="Path 23159" d="M30.436,68.079l-4.807-2.747a3.755,3.755,0,0,0-4.542.631l-1.9,1.933a2.5,2.5,0,0,1-2.944.454,19.545,19.545,0,0,1-7.406-7.262,2.5,2.5,0,0,1,.4-2.953l1.9-1.933a3.755,3.755,0,0,0,.541-4.554L8.833,46.9a3,3,0,0,0-4.327-.89l-.254.183A10.262,10.262,0,0,0,.187,56.449a28.032,28.032,0,0,0,2.18,6.714A23.932,23.932,0,0,0,14.3,74.864a28.033,28.033,0,0,0,6.756,2.048,10.263,10.263,0,0,0,10.178-4.267l.178-.257a3,3,0,0,0-.975-4.308m.063,3.675-.178.257a9.152,9.152,0,0,1-9.077,3.805,26.927,26.927,0,0,1-6.488-1.965A22.822,22.822,0,0,1,3.369,62.687a26.922,26.922,0,0,1-2.093-6.449A9.152,9.152,0,0,1,4.9,47.089l.254-.183a1.885,1.885,0,0,1,2.723.56l2.841,4.752a2.644,2.644,0,0,1-.381,3.207l-1.9,1.933a3.6,3.6,0,0,0-.574,4.27,20.654,20.654,0,0,0,7.856,7.7,3.6,3.6,0,0,0,4.258-.657l1.9-1.933a2.645,2.645,0,0,1,3.2-.444l4.807,2.747a1.885,1.885,0,0,1,.614,2.711" transform="translate(0 -39.014)" stroke="#000" stroke-width="0.7"/>
    </g>
  </g>
</svg>
