<svg xmlns="http://www.w3.org/2000/svg" width="15.466" height="15.344" viewBox="0 0 15.466 15.344">
  <path id="Path_23338" data-name="Path 23338" d="M15.46,11.086l-.008.111a4.437,4.437,0,0,1-4.326,4.148h-.008a2.726,2.726,0,0,1-.377-.017,9.352,9.352,0,0,1-1.376-.111C5.014,14.516,1.6,10.309.279,6.7A6.525,6.525,0,0,1,1.753.35a.744.744,0,0,1,.4-.23A5.343,5.343,0,0,1,3.138.009,1.28,1.28,0,0,1,4.154.341L4.2.4a13.473,13.473,0,0,1,1.688,3.61l.016.137A2.973,2.973,0,0,1,4.981,6.1l-.1.085.057.119A5.667,5.667,0,0,0,6.8,8.636a10.368,10.368,0,0,0,2.327,1.639l.107.06.082-.077A6.016,6.016,0,0,0,10.56,8.713a.673.673,0,0,1,.115-.145,1.278,1.278,0,0,1,1.573-.128A9.638,9.638,0,0,1,13.125,9c.352.247,1.106.768,1.95,1.263a.823.823,0,0,1,.385.819" transform="translate(0 0)"/>
</svg>
