<svg xmlns="http://www.w3.org/2000/svg" width="45" height="45" viewBox="0 0 45 45">
  <g id="Group_8646" data-name="Group 8646" transform="translate(-991.998 -891)">
    <g id="Ellipse_1753" data-name="Ellipse 1753" transform="translate(991.998 891)" fill="none" stroke="#000" stroke-width="1">
      <circle cx="22.5" cy="22.5" r="22.5" stroke="none"/>
      <circle cx="22.5" cy="22.5" r="22" fill="none"/>
    </g>
    <path id="Path_23338" data-name="Path 23338" d="M19.9,13.7l-.011.137a5.614,5.614,0,0,1-5.567,5.124h-.011a3.653,3.653,0,0,1-.485-.021,12.527,12.527,0,0,1-1.771-.137c-5.6-.865-10-6.063-11.693-10.523A7.83,7.83,0,0,1,2.256.432.967.967,0,0,1,2.773.148,7.151,7.151,0,0,1,4.038.011,1.691,1.691,0,0,1,5.346.422L5.409.5a16.353,16.353,0,0,1,2.172,4.46l.021.169A3.616,3.616,0,0,1,6.411,7.539l-.127.105.074.148A7.061,7.061,0,0,0,8.751,10.67a13.359,13.359,0,0,0,2.994,2.024l.137.074.105-.095a7.5,7.5,0,0,0,1.6-1.908.837.837,0,0,1,.148-.179,1.7,1.7,0,0,1,2.024-.158,12.479,12.479,0,0,1,1.128.7c.453.306,1.423.949,2.509,1.56a1,1,0,0,1,.5,1.012" transform="translate(1004.454 904)"/>
  </g>
</svg>
