<svg id="Group_8118" data-name="Group 8118" xmlns="http://www.w3.org/2000/svg" xmlns:xlink="http://www.w3.org/1999/xlink" width="68.741" height="68.664" viewBox="0 0 68.741 68.664">
  <defs>
    <clipPath id="clip-path">
      <rect id="Rectangle_2195" data-name="Rectangle 2195" width="68.741" height="68.664" fill="#30384a"/>
    </clipPath>
  </defs>
  <g id="Group_8117" data-name="Group 8117" clip-path="url(#clip-path)">
    <path id="Path_23160" data-name="Path 23160" d="M31.216,11.915a18.78,18.78,0,0,0-2.849-6.284,13.558,13.558,0,0,0-4.7-4.147A13.811,13.811,0,0,0,17.143.011H17A14.953,14.953,0,0,0,7.346,2.685C-2.119,8.8-.05,22.407,6.921,27.271c.023.016.045.024.067.039a16.723,16.723,0,0,0,9.841,3.336,18.162,18.162,0,0,1,.314,3.494,27.758,27.758,0,0,1-1.171,7.788A40.024,40.024,0,0,1,12.6,49.843a45.368,45.368,0,0,1-5.4,7.63A54.1,54.1,0,0,1,0,64.342l3.641,4.321A69.764,69.764,0,0,0,16.383,57.472,68.007,68.007,0,0,0,25.264,44.92a59.5,59.5,0,0,0,5.192-12.9,47.663,47.663,0,0,0,1.71-12.2,31.314,31.314,0,0,0-.95-7.9" transform="translate(0 0)" fill="#30384a"/>
    <path id="Path_23161" data-name="Path 23161" d="M225.482,11.915a18.78,18.78,0,0,0-2.849-6.284,13.558,13.558,0,0,0-4.7-4.147A13.81,13.81,0,0,0,211.409.011h-.143a14.953,14.953,0,0,0-9.655,2.674c-9.464,6.118-7.4,19.722-.425,24.586.023.016.045.024.067.039a16.723,16.723,0,0,0,9.841,3.336,18.16,18.16,0,0,1,.314,3.494,27.765,27.765,0,0,1-1.171,7.788,40.038,40.038,0,0,1-3.372,7.915,45.368,45.368,0,0,1-5.4,7.63,54.1,54.1,0,0,1-7.2,6.87l3.641,4.321a69.765,69.765,0,0,0,12.743-11.191A68.007,68.007,0,0,0,219.53,44.92a59.5,59.5,0,0,0,5.192-12.9,47.662,47.662,0,0,0,1.71-12.2,31.313,31.313,0,0,0-.95-7.9" transform="translate(-157.69 0)" fill="#30384a"/>
  </g>
</svg>
