<svg xmlns="http://www.w3.org/2000/svg" width="33.949" height="46" viewBox="0 0 33.949 46">
  <g id="Group_8539" data-name="Group 8539" transform="translate(-611 -1516)">
    <path id="Path_23124" data-name="Path 23124" d="M23,9.436H14.872V1.769A1.771,1.771,0,0,0,13.1,0H4.846A1.771,1.771,0,0,0,3.077,1.769V9.436H-5.051A2.953,2.953,0,0,0-8,12.385V39.513a2.943,2.943,0,0,0,2.7,2.924,2.333,2.333,0,0,0-.342,1.2A2.361,2.361,0,0,0-3.282,46,2.361,2.361,0,0,0-.923,43.641a2.333,2.333,0,0,0-.328-1.179H19.2a2.333,2.333,0,0,0-.328,1.179,2.359,2.359,0,1,0,4.718,0,2.333,2.333,0,0,0-.342-1.2,2.943,2.943,0,0,0,2.7-2.924V12.385A2.952,2.952,0,0,0,23,9.436M4.846,1.179H13.1a.59.59,0,0,1,0,1.179H4.846a.59.59,0,0,1,0-1.179m-.59,2.25a1.749,1.749,0,0,0,.59.109H13.1a1.749,1.749,0,0,0,.59-.109V9.436H4.256ZM-2.1,43.641a1.181,1.181,0,0,1-1.179,1.179,1.181,1.181,0,0,1-1.179-1.179,1.181,1.181,0,0,1,1.179-1.179A1.181,1.181,0,0,1-2.1,43.641m23.333,1.179a1.179,1.179,0,1,1,1.179-1.179,1.18,1.18,0,0,1-1.179,1.179m3.538-5.308A1.771,1.771,0,0,1,23,41.282H-5.051a1.771,1.771,0,0,1-1.769-1.769V12.385a1.771,1.771,0,0,1,1.769-1.769H23a1.771,1.771,0,0,1,1.769,1.769Z" transform="translate(619 1516)"/>
    <g id="Group_8296" data-name="Group 8296" transform="translate(0.403 73)">
      <path id="Path_23125" data-name="Path 23125" d="M6.057,13A2.059,2.059,0,0,0,4,15.057V35.625a2.057,2.057,0,0,0,4.114,0V15.057A2.059,2.059,0,0,0,6.057,13m.686,22.625a.686.686,0,0,1-1.371,0V15.057a.686.686,0,1,1,1.371,0Z" transform="translate(615.597 1443.197)"/>
      <path id="Path_23126" data-name="Path 23126" d="M17.057,13A2.059,2.059,0,0,0,15,15.057V35.625a2.057,2.057,0,0,0,4.114,0V15.057A2.059,2.059,0,0,0,17.057,13m.686,22.625a.686.686,0,0,1-1.371,0V15.057a.686.686,0,1,1,1.371,0Z" transform="translate(617.238 1443.197)"/>
      <path id="Path_23127" data-name="Path 23127" d="M11.557,13A2.059,2.059,0,0,0,9.5,15.057V35.625a2.057,2.057,0,0,0,4.114,0V15.057A2.059,2.059,0,0,0,11.557,13m.686,22.625a.686.686,0,0,1-1.371,0V15.057a.686.686,0,1,1,1.371,0Z" transform="translate(616.417 1443.197)"/>
    </g>
  </g>
</svg>
