<svg id="Group_8109" data-name="Group 8109" xmlns="http://www.w3.org/2000/svg" xmlns:xlink="http://www.w3.org/1999/xlink" width="40.007" height="33.111" viewBox="0 0 40.007 33.111">
  <defs>
    <clipPath id="clip-path">
      <rect id="Rectangle_2189" data-name="Rectangle 2189" width="40.007" height="33.111" fill="none"/>
    </clipPath>
  </defs>
  <g id="Group_8108" data-name="Group 8108" clip-path="url(#clip-path)">
    <path id="Path_23154" data-name="Path 23154" d="M39.8,14.21l-5.174-6.9A1.038,1.038,0,0,0,33.8,6.9H27.936V1.035A1.034,1.034,0,0,0,26.9,0H1.034A1.034,1.034,0,0,0,0,1.035V25.178a1.034,1.034,0,0,0,1.034,1.035h4.4a5.267,5.267,0,0,0-.257,1.552,5.345,5.345,0,1,0,10.691,0,5.267,5.267,0,0,0-.257-1.552h5.471a1.035,1.035,0,0,0,0-2.07H14.426a5.288,5.288,0,0,0-7.814,0H2.068V2.07h23.8V18.28a1.034,1.034,0,1,0,2.068,0V8.968h5.347l4.657,6.208v2.069H32.075a1.035,1.035,0,0,0,0,2.07h5.864v4.828H33.4a5.61,5.61,0,1,0,1.181,2.07h4.4a1.034,1.034,0,0,0,1.034-1.035V14.831a1.039,1.039,0,0,0-.205-.621M10.519,24.488a3.276,3.276,0,1,1-3.277,3.276,3.28,3.28,0,0,1,3.277-3.276m18.97,6.553a3.276,3.276,0,1,1,3.277-3.276,3.28,3.28,0,0,1-3.277,3.276" fill="#141414"/>
  </g>
</svg>
