<svg xmlns="http://www.w3.org/2000/svg" xmlns:xlink="http://www.w3.org/1999/xlink" width="38.418" height="38.506" viewBox="0 0 38.418 38.506">
  <defs>
    <clipPath id="clip-path">
      <rect id="Rectangle_2232" data-name="Rectangle 2232" width="38.418" height="38.506" fill="none" stroke="#fff" stroke-width="0.3"/>
    </clipPath>
  </defs>
  <g id="Group_8538" data-name="Group 8538" transform="translate(2 2)">
    <g id="Group_8537" data-name="Group 8537" transform="translate(-2 -2)" clip-path="url(#clip-path)">
      <path id="Path_23358" data-name="Path 23358" d="M29.3,4.805A17.337,17.337,0,0,1,9.025,32.663l-1.367.431-6.029,1.9L3,28.822l.31-1.4A17.337,17.337,0,0,1,29.3,4.805m3.115,13.657c0-.033,0-.066.006-.1s0-.091.006-.136c0-.079.007-.158.009-.238,0-.046,0-.092,0-.138,0-.078,0-.155,0-.233,0-.011,0-.021,0-.032,0-.045,0-.09,0-.134,0-.066,0-.131,0-.2s0-.141-.007-.211c0-.048,0-.1-.005-.144,0-.086-.009-.173-.014-.259,0-.029,0-.059-.006-.088q-.011-.154-.024-.308l0-.03a14.886,14.886,0,1,0-26.732,10.3l-.014.064L5.271,28.2l-.116.524-.706,3.192,3.119-.981,1.04-.327,1.127-.354A14.887,14.887,0,0,0,32.412,18.462" transform="translate(1.625 1.624)" stroke="#fff" stroke-width="0.3" fill-rule="evenodd"/>
      <path id="Path_23359" data-name="Path 23359" d="M29.3,4.805A17.337,17.337,0,0,1,9.025,32.663l-1.367.431-6.029,1.9L3,28.822l.31-1.4A17.337,17.337,0,0,1,29.3,4.805Zm3.115,13.657c0-.033,0-.066.006-.1s0-.091.006-.136c0-.079.007-.158.009-.238,0-.046,0-.092,0-.138,0-.078,0-.155,0-.233,0-.011,0-.021,0-.032,0-.045,0-.09,0-.134,0-.066,0-.131,0-.2s0-.141-.007-.211c0-.048,0-.1-.005-.144,0-.086-.009-.173-.014-.259,0-.029,0-.059-.006-.088q-.011-.154-.024-.308l0-.03a14.886,14.886,0,1,0-26.732,10.3l-.014.064L5.271,28.2l-.116.524-.706,3.192,3.119-.981,1.04-.327,1.127-.354A14.887,14.887,0,0,0,32.412,18.462Z" transform="translate(1.625 1.624)" fill="none" stroke="#fff" stroke-miterlimit="2.613" stroke-width="0.3"/>
      <path id="Path_23360" data-name="Path 23360" d="M76.891,74.29A4.329,4.329,0,0,0,75.94,77.6c-.463,5.034,7.137,12.932,12.1,12.452a4.118,4.118,0,0,0,3.966-1.78,1.943,1.943,0,0,0,.205-1.74c-.408-.811-3.1-1.7-3.976-2.057-.52-.212-1.689.563-2.011.992s-.88.129-.88.129a19.127,19.127,0,0,1-5.116-5.64s-.244-.585.214-.864,1.342-1.369,1.182-1.908-1.444-3.956-1.444-3.956-.438-.738-1.971-.166a4.911,4.911,0,0,0-1.321,1.227" transform="translate(-64.915 -62.214)" stroke="#fff" stroke-width="0.3" fill-rule="evenodd"/>
    </g>
  </g>
</svg>
