<svg xmlns="http://www.w3.org/2000/svg" width="27.454" height="27.454" viewBox="0 0 27.454 27.454">
  <g id="Group_8422" data-name="Group 8422" transform="translate(3988.245 493)">
    <path id="Path_23111" data-name="Path 23111" d="M252.966,39.11a9.345,9.345,0,0,1-8.131,2.854A7.987,7.987,0,0,0,246.4,44a8.059,8.059,0,1,0,8.9-13.189,9.348,9.348,0,0,1-2.335,8.3" transform="translate(-4226.277 -511.727)" fill="#fff"/>
    <path id="Path_23112" data-name="Path 23112" d="M266.6,21.062a9.353,9.353,0,0,1,2.853,8.132,8.059,8.059,0,1,0-11.149-10.466,9.354,9.354,0,0,1,8.3,2.334" transform="translate(-4234.464 -501.542)" fill="#fff"/>
    <path id="Path_23113" data-name="Path 23113" d="M248.552,7.072a9.347,9.347,0,0,1,8.132-2.854,8.059,8.059,0,1,0-10.466,11.15,9.35,9.35,0,0,1,2.334-8.3" transform="translate(-4224.277 -493)" fill="#fff"/>
    <path id="Path_23114" data-name="Path 23114" d="M234.564,25.475a9.349,9.349,0,0,1-2.854-8.131,7.986,7.986,0,0,0-2.039,1.569,8.059,8.059,0,1,0,13.189,8.9,9.347,9.347,0,0,1-8.3-2.335" transform="translate(-4215.737 -503.541)" fill="#fff"/>
  </g>
</svg>
