<svg xmlns="http://www.w3.org/2000/svg" xmlns:xlink="http://www.w3.org/1999/xlink" width="241.461" height="38.011" viewBox="0 0 241.461 38.011">
  <defs>
    <clipPath id="clip-path">
      <rect id="Rectangle_2158" data-name="Rectangle 2158" width="241.461" height="38.011"/>
    </clipPath>
  </defs>
  <g id="Group_8087" data-name="Group 8087" transform="translate(0 0)">
    <g id="Group_7672" data-name="Group 7672" transform="translate(0 0)" clip-path="url(#clip-path)">
      <path id="Path_23104" data-name="Path 23104" d="M71.359,11.645h-13.4v4.832h13.4a3.3,3.3,0,0,1,3.307,3.265v1.131h-11a8.092,8.092,0,0,0,0,16.183l15.783,0V19.743a8.091,8.091,0,0,0-8.091-8.1m3.307,20.627h-11a3.307,3.307,0,0,1,0-6.614h11Z" transform="translate(-25.393 -5.321)"/>
      <path id="Path_23105" data-name="Path 23105" d="M135.379,11.641a8.1,8.1,0,0,1,8.08,8.1V37.06h-4.786V19.775a3.31,3.31,0,0,0-3.306-3.307l-8.339,0V37.06h-4.784V16.47l-7.835,0a3.31,3.31,0,0,0-3.307,3.307V37.06h-4.784V19.741a8.116,8.116,0,0,1,8.1-8.1Z" transform="translate(-48.578 -5.319)"/>
      <path id="Path_23106" data-name="Path 23106" d="M188.043,11.635a6.487,6.487,0,0,0-2.395,12.516c12.739,4,12.744,3.99,12.749,3.991a2.123,2.123,0,0,1-.7,4.126H181.488v4.787H197.7a6.905,6.905,0,0,0,2.558-13.32l-5.217-1.651-7.544-2.4a1.655,1.655,0,0,1,.545-3.218h14.012V11.635Z" transform="translate(-82.923 -5.316)"/>
      <path id="Path_23107" data-name="Path 23107" d="M302.319,30.653l0-6.638,0-4.262a8.1,8.1,0,0,1,8.09-8.09h8.316a8.1,8.1,0,0,1,8.092,8.09l0,4.929s0,11.928,0,12.391h-4.785c0-.488,0-17.28,0-17.28a3.311,3.311,0,0,0-3.308-3.306h-8.316a3.309,3.309,0,0,0-3.306,3.306V37.071h-4.784c0-.469,0-6.418,0-6.418" transform="translate(-138.131 -5.329)"/>
      <path id="Path_23108" data-name="Path 23108" d="M374.587,2.729V7.571l7.577,0v4.82h-7.577V24.882a3.31,3.31,0,0,0,3.305,3.307h6.68v4.786h-6.68a8.1,8.1,0,0,1-8.092-8.093l.006-4.929s0-15.034,0-17.224Z" transform="translate(-168.965 -1.247)"/>
      <rect id="Rectangle_2157" data-name="Rectangle 2157" width="4.781" height="25.426" transform="translate(192.375 6.318)"/>
      <path id="Path_23109" data-name="Path 23109" d="M425.2,19.862a8.1,8.1,0,0,0-8.093-8.09h-6.876a8.1,8.1,0,0,0-8.091,8.09l.009,9.169a8.1,8.1,0,0,0,8.09,8.089H422.8v-4.8H410.244a3.311,3.311,0,0,1-3.307-3.305l0-2.655,18.271-.005c0-.464,0-6.494,0-6.494m-4.785,1.715H406.931V19.862a3.309,3.309,0,0,1,3.305-3.3h6.876a3.31,3.31,0,0,1,3.308,3.3Z" transform="translate(-183.743 -5.379)"/>
      <path id="Path_23110" data-name="Path 23110" d="M19.355,28.2A3.187,3.187,0,0,0,20.39,22L4.661,17.063A7.434,7.434,0,0,1,7.441,2.732H24.9V7.565H7.441A2.64,2.64,0,0,0,4.83,10.17a2.6,2.6,0,0,0,1.755,2.467L14.6,15.18l7.729,2.457a7.962,7.962,0,0,1-2.969,15.346H0V28.2Z" transform="translate(0 -1.248)"/>
      <path id="Path_23111" data-name="Path 23111" d="M256.092,42.3a12.939,12.939,0,0,1-11.257,3.952,11.058,11.058,0,0,0,2.172,2.823,11.158,11.158,0,1,0,12.318-18.26A12.943,12.943,0,0,1,256.092,42.3" transform="translate(-111.867 -14.079)"/>
      <path id="Path_23112" data-name="Path 23112" d="M269.792,23.757a12.949,12.949,0,0,1,3.95,11.259,11.158,11.158,0,1,0-15.436-14.491,12.95,12.95,0,0,1,11.486,3.232" transform="translate(-118.022 -6.422)"/>
      <path id="Path_23113" data-name="Path 23113" d="M251.246,9.792A12.941,12.941,0,0,1,262.505,5.84a11.158,11.158,0,1,0-14.49,15.437,12.945,12.945,0,0,1,3.231-11.485" transform="translate(-110.363 0)"/>
      <path id="Path_23114" data-name="Path 23114" d="M237.284,28.6a12.945,12.945,0,0,1-3.952-11.257,11.057,11.057,0,0,0-2.822,2.172,11.157,11.157,0,1,0,18.26,12.317A12.941,12.941,0,0,1,237.284,28.6" transform="translate(-103.943 -7.925)"/>
    </g>
  </g>
</svg>
