<svg id="Group_7777" data-name="Group 7777" xmlns="http://www.w3.org/2000/svg" xmlns:xlink="http://www.w3.org/1999/xlink" width="343.279" height="54.039" viewBox="0 0 343.279 54.039">
  <defs>
    <clipPath id="clip-path">
      <rect id="Rectangle_2158" data-name="Rectangle 2158" width="343.279" height="54.039" fill="#fff"/>
    </clipPath>
  </defs>
  <g id="Group_7672" data-name="Group 7672" transform="translate(0 0)" clip-path="url(#clip-path)">
    <path id="Path_23104" data-name="Path 23104" d="M78.014,11.645H58.959v6.87l19.055,0a4.691,4.691,0,0,1,4.7,4.641v1.608H67.079a11.5,11.5,0,0,0,0,23.007l22.438,0V23.158a11.5,11.5,0,0,0-11.5-11.513m4.7,29.325H67.079a4.7,4.7,0,0,1,0-9.4H82.716Z" transform="translate(-12.666 -2.654)" fill="#fff"/>
    <path id="Path_23105" data-name="Path 23105" d="M147.633,11.641A11.513,11.513,0,0,1,159.12,23.157V47.779h-6.8V23.206a4.706,4.706,0,0,0-4.7-4.7l-11.855.005v29.27h-6.8V18.507l-11.139,0a4.706,4.706,0,0,0-4.7,4.7V47.779h-6.8V23.157a11.539,11.539,0,0,1,11.517-11.516Z" transform="translate(-24.23 -2.653)" fill="#fff"/>
    <path id="Path_23106" data-name="Path 23106" d="M190.807,11.635a9.222,9.222,0,0,0-3.4,17.794c18.111,5.683,18.118,5.673,18.125,5.674a3.018,3.018,0,0,1-.991,5.866h-23.05v6.805h23.05a9.817,9.817,0,0,0,3.637-18.937l-7.418-2.347-10.724-3.4a2.353,2.353,0,0,1,.775-4.575h19.92V11.635Z" transform="translate(-41.361 -2.652)" fill="#fff"/>
    <path id="Path_23107" data-name="Path 23107" d="M302.319,38.66l0-9.437,0-6.059a11.518,11.518,0,0,1,11.5-11.5h11.822a11.517,11.517,0,0,1,11.5,11.5l0,7.008s0,16.958,0,17.615h-6.8c0-.694,0-24.567,0-24.567a4.708,4.708,0,0,0-4.7-4.7H313.818a4.7,4.7,0,0,0-4.7,4.7V47.785h-6.8c0-.666,0-9.125,0-9.125" transform="translate(-68.898 -2.658)" fill="#fff"/>
    <path id="Path_23108" data-name="Path 23108" d="M376.606,2.729V9.613l10.772,0v6.852H376.606V34.223a4.705,4.705,0,0,0,4.7,4.7h9.5v6.8h-9.5a11.519,11.519,0,0,1-11.5-11.506l.008-7.008s0-21.374,0-24.486Z" transform="translate(-84.278 -0.622)" fill="#fff"/>
    <rect id="Rectangle_2157" data-name="Rectangle 2157" width="6.798" height="36.147" transform="translate(273.494 8.982)" fill="#fff"/>
    <path id="Path_23109" data-name="Path 23109" d="M434.928,23.273a11.517,11.517,0,0,0-11.505-11.5h-9.776a11.515,11.515,0,0,0-11.5,11.5l.012,13.035a11.514,11.514,0,0,0,11.5,11.5h17.857V40.986H413.659a4.707,4.707,0,0,1-4.7-4.7l-.005-3.774,25.975-.008c0-.66,0-9.232,0-9.232m-6.8,2.438H408.949V23.273a4.7,4.7,0,0,1,4.7-4.7h9.776a4.706,4.706,0,0,1,4.7,4.7Z" transform="translate(-91.649 -2.683)" fill="#fff"/>
    <path id="Path_23110" data-name="Path 23110" d="M27.517,38.934a4.531,4.531,0,0,0,1.471-8.814L6.626,23.105A10.569,10.569,0,0,1,10.579,2.732H35.4V9.6H10.579a3.754,3.754,0,0,0-3.711,3.7,3.7,3.7,0,0,0,2.5,3.508l11.387,3.615,10.989,3.493A11.319,11.319,0,0,1,27.517,45.74H0V38.934Z" transform="translate(0 -0.623)" fill="#fff"/>
    <path id="Path_23111" data-name="Path 23111" d="M260.839,47.142a18.4,18.4,0,0,1-16,5.619,15.72,15.72,0,0,0,3.088,4.013,15.863,15.863,0,1,0,17.512-25.96,18.4,18.4,0,0,1-4.6,16.328" transform="translate(-55.798 -7.023)" fill="#fff"/>
    <path id="Path_23112" data-name="Path 23112" d="M274.636,27.848a18.41,18.41,0,0,1,5.616,16.006,15.863,15.863,0,1,0-21.945-20.6,18.411,18.411,0,0,1,16.33,4.595" transform="translate(-58.868 -3.203)" fill="#fff"/>
    <path id="Path_23113" data-name="Path 23113" d="M255.338,13.921A18.4,18.4,0,0,1,271.344,8.3a15.863,15.863,0,1,0-20.6,21.946,18.4,18.4,0,0,1,4.594-16.328" transform="translate(-55.048 0)" fill="#fff"/>
    <path id="Path_23114" data-name="Path 23114" d="M241.412,33.348a18.4,18.4,0,0,1-5.619-16,15.719,15.719,0,0,0-4.013,3.088,15.862,15.862,0,1,0,25.96,17.511,18.4,18.4,0,0,1-16.328-4.6" transform="translate(-51.845 -3.953)" fill="#fff"/>
  </g>
</svg>
